<?xml version="1.0" standalone="no"?>
<!DOCTYPE svg PUBLIC "-//W3C//DTD SVG 20010904//EN"
 "http://www.w3.org/TR/2001/REC-SVG-20010904/DTD/svg10.dtd">
<svg version="1.0" xmlns="http://www.w3.org/2000/svg"
 width="610.000000pt" height="566.000000pt" viewBox="0 0 610.000000 566.000000"
 preserveAspectRatio="xMidYMid meet">

<g transform="translate(0.000000,566.000000) scale(0.100000,-0.100000)"
fill="#338C57" stroke="none">
<path d="M4635 5639 c-203 -29 -438 -158 -566 -310 -68 -81 -107 -141 -150
-235 l-39 -84 -1935 0 -1935 0 0 -305 0 -305 1938 0 1937 0 34 -76 c92 -205
244 -361 446 -460 149 -72 222 -88 415 -88 150 0 173 3 253 27 108 33 223 90
304 151 128 97 258 264 308 399 l18 47 213 0 214 0 0 305 0 305 -210 0 -209 0
-39 84 c-72 152 -160 264 -284 359 -204 156 -460 222 -713 186z m246 -555
c234 -68 351 -331 244 -549 -32 -66 -119 -148 -192 -183 -51 -24 -70 -27 -158
-27 -88 0 -107 3 -157 27 -159 74 -255 249 -228 416 38 230 270 381 491 316z"/>
<path d="M1229 3759 c-42 -4 -105 -15 -140 -24 -75 -19 -228 -90 -294 -135
-131 -90 -268 -257 -329 -402 l-29 -68 -214 0 -213 0 0 -305 0 -305 213 0 214
0 29 -67 c61 -146 198 -313 329 -403 65 -45 218 -116 292 -134 453 -117 927
116 1107 543 l24 56 1936 3 1936 2 0 305 0 305 -1936 2 -1936 3 -24 56 c-159
379 -557 613 -965 568z m166 -550 c274 -51 411 -358 263 -591 -136 -215 -435
-245 -609 -61 -27 29 -62 79 -77 110 -24 51 -27 70 -27 158 0 88 3 107 27 158
53 113 158 197 278 223 71 16 76 16 145 3z"/>
<path d="M3520 1861 c-292 -64 -550 -275 -665 -545 l-28 -66 -1409 0 -1408 0
0 -305 0 -305 1406 -2 c1239 -3 1408 -5 1415 -18 4 -8 26 -54 50 -102 168
-346 567 -559 954 -509 118 16 265 67 367 127 157 93 309 270 382 441 l24 58
741 3 741 2 0 305 0 305 -742 0 -743 0 -28 68 c-75 187 -248 367 -444 466
-128 64 -229 88 -388 92 -110 3 -158 0 -225 -15z m362 -568 c253 -120 302
-447 96 -638 -79 -74 -147 -99 -263 -100 -81 0 -97 4 -157 32 -83 39 -154 108
-194 188 -26 55 -29 69 -29 165 0 93 3 112 27 162 47 100 137 180 241 214 25
8 76 13 127 11 72 -2 95 -7 152 -34z"/>
</g>
</svg>
